# xmcd
#
# Track frame offsets:
#	150
#	15820
#	30180
#	43747
#	53570
#	66145
#	80890
#	91590
#	103957
#	113600
#	121432
#	130860
#	138510
#	150442
#	165647
#	179005
#	186132
#	200680
#	210945
#	223372
#	237055
#	245340
#	256557
#	270755
#	284642
#	294887
#
# Disc length: 4118 seconds
# Revision: 0
# Processed by: cddbd v1.5.2PL0 Copyright (c) Steve Scherf et al.
# Submitted via: dBpowerAMP V12.0
#
DISCID=6210141a
DTITLE=Hazel Dickens and Alice Gerrard - Pioneering Women Of Bluegrass
DYEAR=1996
DGENRE=Americana
TTITLE0=TB Blues
TTITLE1=The One I Love Is Gone
TTITLE2=Who's That Knocking?
TTITLE3=Walkin' In My Sleep
TTITLE4=Won't You Come And Sing For Me?
TTITLE5=Can't You Hear Me Calling?
TTITLE6=Darling Nellie Across The Sea
TTITLE7=Coal Miner's Blues
TTITLE8=Sugar Tree Stomp
TTITLE9=Train On The Island
TTITLE10=Cowboy Jim
TTITLE11=Lee Highway Blues
TTITLE12=Memories Of Mother And Dad
TTITLE13=Long Black Veil
TTITLE14=Gonna Lay Down My Old Guitar
TTITLE15=Difficult Run
TTITLE16=Mommy Please Stay Home With Me
TTITLE17=Gabriel's Call
TTITLE18=Just Another Broken Heart
TTITLE19=A Distant Land To Roam
TTITLE20=John Henry
TTITLE21=I Just Got Wise
TTITLE22=Lover's Return
TTITLE23=A Tiny Broken Heart
TTITLE24=Take Me Back To Tulsa
TTITLE25=I Hear A Sweet Voice Calling
EXTD=
EXTT0=
EXTT1=
EXTT2=
EXTT3=
EXTT4=
EXTT5=
EXTT6=
EXTT7=
EXTT8=
EXTT9=
EXTT10=
EXTT11=
EXTT12=
EXTT13=
EXTT14=
EXTT15=
EXTT16=
EXTT17=
EXTT18=
EXTT19=
EXTT20=
EXTT21=
EXTT22=
EXTT23=
EXTT24=
EXTT25=
PLAYORDER=
